<svg width="129" height="147" viewBox="0 0 129 147" fill="none" xmlns="http://www.w3.org/2000/svg">
<path d="M71.7114 0C40.385 0 14.85 24.126 14.4284 53.935L0 93.5399H14.4234V123.051H42.4125V146.435H108.194V96.8433C114.26 92.0498 119.299 86.0446 122.846 79.3612C126.929 71.6676 129 63.3652 129 54.6846C129 24.5313 103.3 0 71.7114 0Z" fill="#FCD166" fill-opacity="0.87"/>
<path fill-rule="evenodd" clip-rule="evenodd" d="M81.631 17.4613C80.3171 16.7294 78.5638 16.5141 75.0572 16.0836C71.5506 15.653 69.7972 15.4377 68.3454 15.83C66.4093 16.3531 64.7677 17.6108 63.7817 19.3263C63.3316 20.1095 63.0772 21.0533 62.8518 22.4479C62.5205 24.4974 61.2103 26.2712 59.2652 27.0781C57.32 27.8851 55.1045 27.574 53.3661 26.3832C52.1832 25.5728 51.3119 25.096 50.4229 24.8684C48.4754 24.3698 46.4095 24.6502 44.6796 25.6481C43.3822 26.3964 42.3226 27.7786 40.2035 30.5431C38.0843 33.3075 37.0248 34.6897 36.6506 36.1221C36.1516 38.0317 36.4468 40.0613 37.471 41.7643C37.9386 42.5417 38.6448 43.2333 39.7629 44.1277C41.4067 45.4426 42.3216 47.451 42.0685 49.5116C41.8153 51.5722 40.4418 53.2992 38.529 54.1771C37.2275 54.7747 36.3747 55.2753 35.733 55.9164C34.3272 57.3209 33.5499 59.2186 33.572 61.1923C33.5885 62.6725 34.2822 64.2703 35.6696 67.4651C37.0571 70.66 37.7507 72.2578 38.8286 73.2975C40.2657 74.6841 42.2024 75.456 44.2127 75.4435C45.1303 75.4377 46.091 75.1858 47.4347 74.6859C49.4097 73.951 51.6348 74.1852 53.3271 75.4386C55.0193 76.6924 55.8615 78.7305 55.6871 80.7996C55.5685 82.207 55.587 83.1844 55.8343 84.0532C56.3759 85.9561 57.6645 87.5738 59.4165 88.5497C60.7304 89.2815 62.4837 89.4967 65.9903 89.9273C69.497 90.3579 71.2503 90.5731 72.7021 90.181C74.6382 89.6579 76.2798 88.4 77.2656 86.6846C77.7158 85.9015 77.9705 84.9576 78.1959 83.563C78.5272 81.5135 79.8371 79.7397 81.7822 78.9325C83.7274 78.1253 85.9432 78.4367 87.6817 79.6276C88.8646 80.4377 89.7356 80.9142 90.6247 81.1418C92.5721 81.6406 94.638 81.3602 96.3678 80.3624C97.6655 79.614 98.7249 78.2319 100.844 75.4672C102.963 72.7029 104.023 71.3207 104.397 69.8885C104.896 67.9788 104.601 65.949 103.577 64.2462C103.109 63.4688 102.403 62.7768 101.284 61.8824C99.6409 60.5679 98.726 58.5595 98.9791 56.4989C99.2321 54.4383 100.606 52.7117 102.518 51.8338C103.82 51.2362 104.673 50.736 105.315 50.0945C106.72 48.6901 107.498 46.7922 107.476 44.8185C107.459 43.3382 106.765 41.7407 105.378 38.5457C103.99 35.3508 103.297 33.7533 102.219 32.7132C100.782 31.3266 98.8451 30.5547 96.8348 30.5673C95.9171 30.5731 94.9563 30.8249 93.6129 31.325C91.6379 32.0599 89.4127 31.8258 87.7205 30.5721C86.0284 29.3185 85.1861 27.2803 85.3602 25.2114C85.4788 23.8038 85.4604 22.8265 85.2131 21.9578C84.6715 20.0546 83.383 18.4372 81.631 17.4613ZM69.1637 64.082C75.3984 64.8475 81.0611 60.5091 81.8122 54.3915C82.5633 48.2739 78.1184 42.6944 71.8838 41.9289C65.6491 41.1634 59.9863 45.5018 59.2352 51.6194C58.484 57.737 62.9291 63.3165 69.1637 64.082Z" fill="#F9FAFC"/>
</svg>
