<svg width="21" height="24" viewBox="0 0 21 24" fill="none" xmlns="http://www.w3.org/2000/svg">
<path d="M1 4.66667H20M15.25 4.66667L14.9287 3.67431C14.6172 2.71264 14.4614 2.2318 14.1726 1.87631C13.9175 1.56238 13.59 1.31939 13.22 1.16962C12.8009 1 12.3086 1 11.3236 1H9.67635C8.69144 1 8.1991 1 7.78004 1.16962C7.41003 1.31939 7.08247 1.56238 6.82741 1.87631C6.53856 2.2318 6.38284 2.71264 6.07139 3.67431L5.75 4.66667M17.625 4.66667V17.1333C17.625 19.1869 17.625 20.2136 17.2367 20.998C16.8952 21.6879 16.3502 22.2488 15.6799 22.6003C14.9177 23 13.9202 23 11.925 23H9.075C7.07981 23 6.08221 23 5.32016 22.6003C4.64983 22.2488 4.10484 21.6879 3.76329 20.998C3.375 20.2136 3.375 19.1869 3.375 17.1333V4.66667M12.875 9.55555V18.1111M8.125 9.55555V18.1111" stroke="#DF1A1A" stroke-width="1.4" stroke-linecap="round" stroke-linejoin="round"/>
</svg>
